<?xml version="1.0" encoding="utf-8"?>
<!-- Generator: Adobe Illustrator 21.0.2, SVG Export Plug-In . SVG Version: 6.00 Build 0)  -->
<svg version="1.1" id="Layer_1" xmlns="http://www.w3.org/2000/svg" xmlns:xlink="http://www.w3.org/1999/xlink" x="0px" y="0px"
	 viewBox="0 0 100 39" style="enable-background:new 0 0 100 39;" xml:space="preserve">
<style type="text/css">
	.st0{fill:#FFFFFF;}
</style>
<g>
	<path class="st0" d="M19.9,30.9c6,0,10.9-5,10.9-10.9s-5-10.9-10.9-10.9C13.9,9.1,9,14.1,9,20S14,30.9,19.9,30.9z"/>
	<path class="st0" d="M50,30.9c6,0,10.9-5,10.9-10.9S55.9,9.1,50,9.1c-6,0-10.9,5-10.9,10.9S44,30.9,50,30.9z"/>
	<path class="st0" d="M80.1,9.1c-6,0-10.9,5-10.9,10.9s5,10.9,10.9,10.9c6,0,10.9-5,10.9-10.9S86,9.1,80.1,9.1z"/>
</g>
</svg>
