<?xml version="1.0" encoding="utf-8"?>
<!-- Generator: Adobe Illustrator 21.0.2, SVG Export Plug-In . SVG Version: 6.00 Build 0)  -->
<svg version="1.1" id="Layer_1" xmlns="http://www.w3.org/2000/svg" xmlns:xlink="http://www.w3.org/1999/xlink" x="0px" y="0px"
	 viewBox="0 0 241.5 48.3" style="enable-background:new 0 0 241.5 48.3;" xml:space="preserve">
<style type="text/css">
	.st0{fill:#FFFFFF;}
	.st1{fill:none;}
</style>
<title>salmon-logo-white</title>
<desc>Created with Sketch.</desc>
<g>
	<path class="st0" d="M89.3,37.1V12.8h9.1v2.7c1.5-1.8,4.7-3.4,7.4-3.4v8.7c-0.5-0.2-1.2-0.3-2.1-0.3c-1.9,0-4.4,0.5-5.4,1.7v14.9
		L89.3,37.1L89.3,37.1z"/>
	<path class="st0" d="M120.4,37.1v-2.3c-1.4,1.7-4.3,2.9-7.3,2.9c-3.6,0-8.4-2.5-8.4-8c0-6,4.7-7.7,8.4-7.7c3.2,0,6,1,7.3,2.7v-2.5
		c0-1.7-1.6-3-4.5-3c-2.3,0-4.8,0.9-6.7,2.4l-3.1-5.6c3.3-2.6,7.8-3.7,11.5-3.7c6,0,11.9,2.1,11.9,10.2v14.7h-9.1V37.1z M120.4,30.5
		v-1.4c-0.6-0.9-2.2-1.3-3.6-1.3c-1.5,0-3.2,0.5-3.2,2s1.7,2,3.2,2C118.3,31.9,119.8,31.4,120.4,30.5z"/>
	<path class="st0" d="M133.1,38.5c0.6,0.3,1.3,0.5,1.9,0.5c1.8,0,2.9-0.3,3.2-1l0.2-0.5l-9.6-24.7h9.6l4.6,13.9l4.7-13.9h9.6
		l-10.6,27.3c-2.2,5.6-6.2,6.7-11.3,6.8c-0.7,0-2.7-0.2-3.5-0.4L133.1,38.5z"/>
	<path class="st0" d="M158.4,37.1V20.6h-4v-7.8h4v-1.1c0-5,3.9-8.7,9.3-8.7c2.3,0,4.3,0.5,5.6,1.2l-1.7,6.1c-0.5-0.4-1.2-0.7-2-0.7
		c-1.2,0-2.2,0.9-2.2,2v1.1h4.9v7.8h-4.9V37h-9V37.1z M174.6,6c0-2.8,2.3-5.1,5.1-5.1s5.1,2.3,5.1,5.1c0,2.8-2.3,5.1-5.1,5.1
		C176.9,11.1,174.6,8.8,174.6,6z M175.2,37.1V12.8h9.1v24.3H175.2z"/>
	<path class="st0" d="M203.3,37.1V23.7c0-2.5-1.4-3.5-3.5-3.5c-2.1,0-3.1,1.1-3.9,1.9v15h-9.1V12.8h9.1v2.8c1.4-1.6,4.1-3.4,8.4-3.4
		c5.6,0,8.1,3.4,8.1,7.6v17.3H203.3z"/>
	<path class="st0" d="M231.4,37.1V23.7c0-2.5-1.4-3.5-3.5-3.5s-3.1,1.1-3.9,1.9v15h-9.1V12.8h9.1v2.8c1.4-1.6,4.1-3.4,8.4-3.4
		c5.6,0,8.1,3.4,8.1,7.6v17.3H231.4z"/>
</g>
<g>
	<path class="st1" d="M51.5,35.6c-1.9,0.5-4,0.8-6.4,0.9c-6.6,0.3-11.4-1.4-14.8-3.5c10.8,1.3,17.2-0.8,19.3-1.6
		C50.2,33,50.9,34.5,51.5,35.6z"/>
	<path class="st1" d="M32.2,14.7c3.1-1.8,7.1-3.1,12.3-3.3c2.3-0.1,4.4,0.1,6.4,0.4c-0.8,1.7-1.4,3.4-1.8,5.1
		C47,16,40.9,14.1,32.2,14.7z"/>
	<path class="st1" d="M52.7,12.1c8.8,2,13.9,7.5,16,10.4c0.2,0.2,0.3,0.6,0.1,0.8c-1.9,3-6.7,9-15.5,11.8
		C51.3,31.8,47.2,23,52.7,12.1z M58.5,24.7c0,1.6,1.1,2.9,2.3,2.8c1.2-0.1,2.2-1.4,2.2-3c0-1.6-1.1-2.9-2.3-2.8
		C59.4,21.8,58.4,23.1,58.5,24.7z"/>
	<polygon class="st1" points="9.2,35.9 8.7,15.5 18.9,26.3 	"/>
	<path class="st1" d="M23.2,25.1c-0.1-0.2-0.1-0.4,0-0.6c0.8-1.8,2.4-4.6,5.4-7.3c10.5-1.5,17.9,0.8,20.1,1.7
		c-0.6,3.9-0.3,7.4,0.4,10.3c-2.2,0.9-9.7,3.2-22.1,1c-0.8-0.8-1.5-1.6-2.1-2.4C24.1,26.8,23.6,25.9,23.2,25.1z"/>
	<path class="st0" d="M5.1,10.8c0-0.9,0.3-1.7,0.9-2C6.7,8.4,7.4,8.5,7.9,9l12.4,13.1c2-4.5,8.3-14.5,24.1-15.1
		c15.4-0.6,23.8,8.4,26.8,12.5c0,0.1,0.1,0.1,0.1,0.1c1.3,1.8,1.4,4.6,0.2,6.5c-2.7,4.2-10.6,14.2-26.2,14.8
		c-14,0.6-20.9-6.8-23.9-11.5L8.6,42c-0.5,0.5-1.2,0.6-1.8,0.2c-0.6-0.4-0.9-1.1-1-1.9L5.1,10.8z M51.5,35.6
		c-0.6-1.1-1.3-2.5-1.9-4.3c-2.1,0.9-8.5,3-19.3,1.6c3.4,2.2,8.2,3.8,14.8,3.5C47.4,36.4,49.5,36.1,51.5,35.6z M52.7,12.1
		c-5.5,10.9-1.5,19.7,0.6,23c8.8-2.8,13.7-8.8,15.5-11.8c0.2-0.2,0.1-0.6-0.1-0.8C66.6,19.6,61.6,14.1,52.7,12.1z M32.2,14.7
		c8.8-0.6,14.8,1.3,16.9,2.2c0.4-1.6,1-3.3,1.8-5.1c-2-0.3-4.1-0.5-6.4-0.4C39.3,11.6,35.3,12.9,32.2,14.7z M23.2,25.1
		c0.4,0.7,0.9,1.7,1.7,2.7c0.6,0.8,1.2,1.6,2.1,2.4c12.5,2.2,19.9-0.1,22.1-1c-0.7-2.9-1.1-6.4-0.4-10.3c-2.2-0.8-9.6-3.2-20.1-1.7
		c-3,2.6-4.6,5.5-5.4,7.3C23.1,24.7,23.1,25,23.2,25.1z M8.7,15.5l0.5,20.4l9.8-9.6L8.7,15.5z"/>
	<path class="st0" d="M63,24.5c0-1.6-1.1-2.9-2.3-2.8c-1.2,0.1-2.2,1.4-2.2,3s1.1,2.9,2.3,2.8S63,26.1,63,24.5z"/>
</g>
</svg>
